<?xml version="1.0" standalone="no"?>
<!DOCTYPE svg PUBLIC "-//W3C//DTD SVG 20010904//EN"
 "http://www.w3.org/TR/2001/REC-SVG-20010904/DTD/svg10.dtd">
<svg version="1.0" xmlns="http://www.w3.org/2000/svg"
 width="892.000000pt" height="297.000000pt" viewBox="0 0 892.000000 297.000000"
 preserveAspectRatio="xMidYMid meet">

<g transform="translate(0.000000,297.000000) scale(0.100000,-0.100000)"
fill="#000000" stroke="none">
<path d="M6002 1443 l3 -698 555 0 555 0 3 681 c2 585 0 683 -12 687 -8 3 -19
0 -25 -7 -7 -9 -12 -217 -13 -649 l-3 -637 -205 262 c-112 145 -344 442 -514
661 -207 265 -316 397 -328 397 -17 0 -18 -27 -16 -697z m349 207 c150 -195
357 -463 459 -595 102 -132 189 -246 193 -252 7 -10 -91 -13 -472 -13 l-481 0
0 622 c0 524 2 620 14 608 7 -8 136 -175 287 -370z"/>
<path d="M3135 2115 c-216 -48 -390 -184 -485 -379 -77 -157 -91 -364 -36
-532 68 -211 252 -388 471 -452 61 -18 106 -24 190 -24 158 -2 261 29 398 119
l67 45 -2 191 -3 192 -225 3 c-182 2 -229 0 -245 -12 -16 -12 -17 -16 -6 -30
12 -14 43 -16 222 -16 l209 0 0 -150 0 -149 -44 -30 c-184 -127 -440 -147
-642 -50 -183 87 -319 264 -360 468 -55 274 91 567 347 697 203 102 479 81
659 -51 52 -39 77 -44 87 -18 15 38 -184 151 -312 178 -86 18 -210 18 -290 0z"/>
<path d="M4525 2116 c-125 -30 -196 -64 -302 -148 -151 -119 -240 -296 -250
-500 -12 -228 65 -414 232 -565 278 -251 733 -226 985 54 111 124 169 268 177
438 6 120 -12 221 -57 321 -79 173 -241 317 -427 380 -96 33 -263 42 -358 20z
m300 -62 c172 -41 339 -173 420 -334 168 -332 23 -734 -320 -885 -85 -38 -206
-59 -300 -52 -163 13 -295 75 -417 197 -179 181 -234 445 -141 679 59 148 166
269 300 339 152 78 291 96 458 56z"/>
<path d="M4648 1479 c-10 -5 -23 -19 -29 -30 -24 -45 52 -94 89 -57 20 20 14
65 -10 82 -26 19 -27 19 -50 5z"/>
<path d="M812 2107 c-14 -16 -31 -54 -353 -764 -142 -315 -259 -579 -259 -588
0 -13 71 -15 630 -15 474 0 630 3 630 12 0 13 -598 1337 -613 1356 -12 15 -22
15 -35 -1z m302 -705 c152 -332 276 -605 276 -608 0 -2 -252 -4 -560 -4 -308
0 -560 4 -560 8 0 5 104 235 230 513 127 277 252 550 277 606 26 57 50 100 54
95 4 -4 132 -278 283 -610z"/>
<path d="M1631 2106 c-8 -9 -10 -198 -9 -687 l3 -674 408 -3 407 -2 0 25 0 25
-380 0 -380 0 0 646 c0 426 -4 652 -10 665 -13 22 -23 24 -39 5z"/>
<path d="M5641 2106 c-8 -9 -10 -198 -9 -687 l3 -674 21 -3 c15 -2 23 4 28 20
11 41 7 1318 -4 1339 -13 22 -23 24 -39 5z"/>
<path d="M7452 2112 c-9 -6 -12 -151 -10 -688 l3 -679 295 1 c289 0 296 1 372
26 117 39 204 92 289 177 85 85 136 169 171 281 33 107 33 283 0 390 -60 193
-187 341 -367 426 -128 61 -162 66 -465 71 -151 2 -281 0 -288 -5z m582 -62
c188 -36 359 -168 445 -344 51 -105 66 -170 65 -286 -1 -242 -134 -450 -359
-560 -122 -60 -198 -71 -465 -68 l-225 3 -3 632 -2 632 77 3 c150 6 409 -1
467 -12z"/>
</g>
</svg>
