<?xml version="1.0" encoding="utf-8" standalone="no"?>
<!DOCTYPE svg PUBLIC "-//W3C//DTD SVG 1.1//EN"
  "http://www.w3.org/Graphics/SVG/1.1/DTD/svg11.dtd">
<svg xmlns:xlink="http://www.w3.org/1999/xlink" width="864pt" height="360pt" viewBox="0 0 864 360" xmlns="http://www.w3.org/2000/svg" version="1.1">
 <metadata>
  <rdf:RDF xmlns:dc="http://purl.org/dc/elements/1.1/" xmlns:cc="http://creativecommons.org/ns#" xmlns:rdf="http://www.w3.org/1999/02/22-rdf-syntax-ns#">
   <cc:Work>
    <dc:type rdf:resource="http://purl.org/dc/dcmitype/StillImage"/>
    <dc:date>2023-05-04T17:36:55.059732</dc:date>
    <dc:format>image/svg+xml</dc:format>
    <dc:creator>
     <cc:Agent>
      <dc:title>Matplotlib v3.7.0, https://matplotlib.org/</dc:title>
     </cc:Agent>
    </dc:creator>
   </cc:Work>
  </rdf:RDF>
 </metadata>
 <defs>
  <style type="text/css">*{stroke-linejoin: round; stroke-linecap: butt}</style>
 </defs>
 <g id="figure_1">
  <g id="patch_1">
   <path d="M 0 360 
L 864 360 
L 864 0 
L 0 0 
z
" style="fill: #ffffff"/>
  </g>
  <g id="axes_1">
   <g id="patch_2">
    <path d="M 36.5 172.251875 
L 403.554545 172.251875 
L 403.554545 16.79625 
L 36.5 16.79625 
z
" style="fill: #f2f2f2"/>
   </g>
   <g id="matplotlib.axis_1">
    <g id="xtick_1">
     <g id="line2d_1">
      <path d="M 53.184298 172.251875 
L 53.184298 16.79625 
" clip-path="url(#pc6c9661ad9)" style="fill: none; stroke: #ffffff; stroke-linecap: round"/>
     </g>
    </g>
    <g id="xtick_2">
     <g id="line2d_2">
      <path d="M 70.746716 172.251875 
L 70.746716 16.79625 
" clip-path="url(#pc6c9661ad9)" style="fill: none; stroke: #ffffff; stroke-linecap: round"/>
     </g>
    </g>
    <g id="xtick_3">
     <g id="line2d_3">
      <path d="M 123.433971 172.251875 
L 123.433971 16.79625 
" clip-path="url(#pc6c9661ad9)" style="fill: none; stroke: #ffffff; stroke-linecap: round"/>
     </g>
    </g>
    <g id="xtick_4">
     <g id="line2d_4">
      <path d="M 211.246064 172.251875 
L 211.246064 16.79625 
" clip-path="url(#pc6c9661ad9)" style="fill: none; stroke: #ffffff; stroke-linecap: round"/>
     </g>
    </g>
    <g id="xtick_5">
     <g id="line2d_5">
      <path d="M 386.870248 172.251875 
L 386.870248 16.79625 
" clip-path="url(#pc6c9661ad9)" style="fill: none; stroke: #ffffff; stroke-linecap: round"/>
     </g>
    </g>
   </g>
   <g id="matplotlib.axis_2">
    <g id="ytick_1">
     <g id="line2d_6">
      <path d="M 36.5 172.251875 
L 403.554545 172.251875 
" clip-path="url(#pc6c9661ad9)" style="fill: none; stroke: #ffffff; stroke-linecap: round"/>
     </g>
     <g id="text_1">
      <!-- 0.0 -->
      <g style="fill: #262626" transform="translate(12.942344 176.069219) scale(0.11 -0.11)">
       <defs>
        <path id="CMUSerif-Roman-30" d="M 250 2048 
Q 250 2989 486 3501 
Q 819 4262 1600 4262 
Q 1766 4262 1939 4217 
Q 2112 4173 2333 4000 
Q 2554 3827 2688 3546 
Q 2944 3002 2944 2048 
Q 2944 1114 2707 602 
Q 2362 -141 1594 -141 
Q 1306 -141 1014 6 
Q 723 154 538 506 
Q 250 1037 250 2048 
z
M 781 2125 
Q 781 1158 851 774 
Q 928 358 1142 179 
Q 1357 0 1594 0 
Q 1850 0 2064 192 
Q 2278 384 2342 800 
Q 2413 1210 2413 2125 
Q 2413 3014 2349 3373 
Q 2266 3789 2042 3955 
Q 1818 4122 1594 4122 
Q 1510 4122 1420 4096 
Q 1331 4070 1203 4000 
Q 1075 3930 976 3750 
Q 877 3571 832 3302 
Q 781 2957 781 2125 
z
" transform="scale(0.015625)"/>
        <path id="CMUSerif-Roman-2e" d="M 640 102 
Q 544 205 544 339 
Q 544 474 640 573 
Q 736 672 883 672 
Q 1024 672 1120 579 
Q 1216 486 1216 339 
Q 1216 192 1113 96 
Q 1011 0 883 0 
Q 736 0 640 102 
z
" transform="scale(0.015625)"/>
       </defs>
       <use xlink:href="#CMUSerif-Roman-30"/>
       <use xlink:href="#CMUSerif-Roman-2e" x="49.999985"/>
       <use xlink:href="#CMUSerif-Roman-30" x="77.799973"/>
      </g>
     </g>
    </g>
    <g id="ytick_2">
     <g id="line2d_7">
      <path d="M 36.5 141.16075 
L 403.554545 141.16075 
" clip-path="url(#pc6c9661ad9)" style="fill: none; stroke: #ffffff; stroke-linecap: round"/>
     </g>
     <g id="text_2">
      <!-- 0.2 -->
      <g style="fill: #262626" transform="translate(12.942344 144.978094) scale(0.11 -0.11)">
       <defs>
        <path id="CMUSerif-Roman-32" d="M 320 0 
Q 320 115 329 150 
Q 339 186 390 237 
L 1619 1606 
Q 2291 2362 2291 3021 
Q 2291 3450 2067 3757 
Q 1843 4064 1434 4064 
Q 1152 4064 915 3891 
Q 678 3718 570 3411 
Q 589 3418 653 3418 
Q 813 3418 902 3318 
Q 992 3219 992 3085 
Q 992 2912 880 2829 
Q 768 2746 659 2746 
Q 614 2746 556 2755 
Q 499 2765 409 2854 
Q 320 2944 320 3104 
Q 320 3552 659 3907 
Q 998 4262 1517 4262 
Q 2106 4262 2490 3913 
Q 2874 3565 2874 3021 
Q 2874 2829 2816 2656 
Q 2758 2483 2681 2348 
Q 2605 2214 2400 2000 
Q 2195 1786 2028 1632 
Q 1862 1478 1491 1152 
L 813 493 
L 1965 493 
Q 2528 493 2573 544 
Q 2637 634 2714 1114 
L 2874 1114 
L 2694 0 
L 320 0 
z
" transform="scale(0.015625)"/>
       </defs>
       <use xlink:href="#CMUSerif-Roman-30"/>
       <use xlink:href="#CMUSerif-Roman-2e" x="49.999985"/>
       <use xlink:href="#CMUSerif-Roman-32" x="77.799973"/>
      </g>
     </g>
    </g>
    <g id="ytick_3">
     <g id="line2d_8">
      <path d="M 36.5 110.069625 
L 403.554545 110.069625 
" clip-path="url(#pc6c9661ad9)" style="fill: none; stroke: #ffffff; stroke-linecap: round"/>
     </g>
     <g id="text_3">
      <!-- 0.4 -->
      <g style="fill: #262626" transform="translate(12.942344 113.886969) scale(0.11 -0.11)">
       <defs>
        <path id="CMUSerif-Roman-34" d="M 179 1056 
L 179 1254 
L 2144 4256 
Q 2195 4333 2272 4333 
Q 2342 4333 2358 4304 
Q 2374 4275 2374 4166 
L 2374 1254 
L 3014 1254 
L 3014 1056 
L 2374 1056 
L 2374 499 
Q 2374 314 2451 256 
Q 2528 198 2861 198 
L 2995 198 
L 2995 0 
Q 2733 19 2125 19 
Q 1523 19 1261 0 
L 1261 198 
L 1395 198 
Q 1728 198 1805 256 
Q 1882 314 1882 499 
L 1882 1056 
L 179 1056 
z
M 358 1254 
L 1920 1254 
L 1920 3642 
L 358 1254 
z
" transform="scale(0.015625)"/>
       </defs>
       <use xlink:href="#CMUSerif-Roman-30"/>
       <use xlink:href="#CMUSerif-Roman-2e" x="49.999985"/>
       <use xlink:href="#CMUSerif-Roman-34" x="77.799973"/>
      </g>
     </g>
    </g>
    <g id="ytick_4">
     <g id="line2d_9">
      <path d="M 36.5 78.9785 
L 403.554545 78.9785 
" clip-path="url(#pc6c9661ad9)" style="fill: none; stroke: #ffffff; stroke-linecap: round"/>
     </g>
     <g id="text_4">
      <!-- 0.6 -->
      <g style="fill: #262626" transform="translate(12.942344 82.795844) scale(0.11 -0.11)">
       <defs>
        <path id="CMUSerif-Roman-36" d="M 269 2022 
Q 269 3027 781 3644 
Q 1293 4262 1952 4262 
Q 2336 4262 2550 4067 
Q 2765 3872 2765 3571 
Q 2765 3405 2669 3334 
Q 2573 3264 2470 3264 
Q 2355 3264 2265 3341 
Q 2176 3418 2176 3558 
Q 2176 3846 2528 3846 
Q 2362 4102 1965 4102 
Q 1843 4102 1718 4067 
Q 1594 4032 1430 3913 
Q 1267 3795 1142 3606 
Q 1018 3418 931 3066 
Q 845 2714 845 2253 
L 845 2099 
Q 1107 2733 1644 2733 
Q 2182 2733 2553 2323 
Q 2925 1914 2925 1306 
Q 2925 685 2537 272 
Q 2150 -141 1606 -141 
Q 1363 -141 1142 -38 
Q 922 64 717 294 
Q 512 525 390 969 
Q 269 1414 269 2022 
z
M 858 1446 
Q 858 819 973 518 
Q 992 467 1033 400 
Q 1075 333 1148 243 
Q 1222 154 1344 96 
Q 1466 38 1606 38 
Q 2035 38 2240 454 
Q 2349 685 2349 1312 
Q 2349 1952 2234 2189 
Q 2035 2586 1638 2586 
Q 1370 2586 1184 2400 
Q 998 2214 928 1968 
Q 858 1722 858 1446 
z
" transform="scale(0.015625)"/>
       </defs>
       <use xlink:href="#CMUSerif-Roman-30"/>
       <use xlink:href="#CMUSerif-Roman-2e" x="49.999985"/>
       <use xlink:href="#CMUSerif-Roman-36" x="77.799973"/>
      </g>
     </g>
    </g>
    <g id="ytick_5">
     <g id="line2d_10">
      <path d="M 36.5 47.887375 
L 403.554545 47.887375 
" clip-path="url(#pc6c9661ad9)" style="fill: none; stroke: #ffffff; stroke-linecap: round"/>
     </g>
     <g id="text_5">
      <!-- 0.8 -->
      <g style="fill: #262626" transform="translate(12.942344 51.704719) scale(0.11 -0.11)">
       <defs>
        <path id="CMUSerif-Roman-38" d="M 269 966 
Q 269 1683 1190 2144 
Q 794 2413 723 2490 
Q 442 2803 442 3194 
Q 442 3642 781 3952 
Q 1120 4262 1600 4262 
Q 2061 4262 2406 3996 
Q 2752 3731 2752 3309 
Q 2752 2714 1978 2317 
Q 2490 1997 2611 1862 
Q 2925 1517 2925 1075 
Q 2925 563 2531 211 
Q 2138 -141 1594 -141 
Q 1062 -141 665 169 
Q 269 480 269 966 
z
M 589 966 
Q 589 570 886 304 
Q 1184 38 1600 38 
Q 2003 38 2304 268 
Q 2605 499 2605 845 
Q 2605 979 2560 1094 
Q 2515 1210 2425 1302 
Q 2336 1395 2281 1436 
Q 2227 1478 2125 1549 
L 1338 2048 
Q 589 1632 589 966 
z
M 723 3443 
Q 723 3136 1043 2925 
L 1837 2413 
Q 2470 2784 2470 3309 
Q 2470 3648 2211 3875 
Q 1952 4102 1594 4102 
Q 1242 4102 982 3916 
Q 723 3731 723 3443 
z
" transform="scale(0.015625)"/>
       </defs>
       <use xlink:href="#CMUSerif-Roman-30"/>
       <use xlink:href="#CMUSerif-Roman-2e" x="49.999985"/>
       <use xlink:href="#CMUSerif-Roman-38" x="77.799973"/>
      </g>
     </g>
    </g>
    <g id="ytick_6">
     <g id="line2d_11">
      <path d="M 36.5 16.79625 
L 403.554545 16.79625 
" clip-path="url(#pc6c9661ad9)" style="fill: none; stroke: #ffffff; stroke-linecap: round"/>
     </g>
     <g id="text_6">
      <!-- 1.0 -->
      <g style="fill: #262626" transform="translate(12.942344 20.613594) scale(0.11 -0.11)">
       <defs>
        <path id="CMUSerif-Roman-31" d="M 570 3654 
L 570 3853 
Q 1338 3853 1734 4262 
Q 1843 4262 1862 4236 
Q 1882 4211 1882 4096 
L 1882 506 
Q 1882 314 1974 256 
Q 2067 198 2477 198 
L 2682 198 
L 2682 0 
Q 2458 19 1645 19 
Q 832 19 608 0 
L 608 198 
L 813 198 
Q 1216 198 1312 256 
Q 1408 314 1408 506 
L 1408 3821 
Q 1075 3654 570 3654 
z
" transform="scale(0.015625)"/>
       </defs>
       <use xlink:href="#CMUSerif-Roman-31"/>
       <use xlink:href="#CMUSerif-Roman-2e" x="49.999985"/>
       <use xlink:href="#CMUSerif-Roman-30" x="77.799973"/>
      </g>
     </g>
    </g>
    <g id="text_7">
     <!-- Answer Coverage Rate -->
     <g style="fill: #262626" transform="translate(-7.057656 154.632812) rotate(-90) scale(0.12 -0.12)">
      <defs>
       <path id="CMUSerif-Roman-41" d="M 205 0 
L 205 198 
Q 774 211 922 627 
L 2246 4454 
Q 2272 4531 2301 4556 
Q 2330 4582 2400 4582 
Q 2438 4582 2460 4576 
Q 2483 4570 2499 4547 
Q 2515 4525 2521 4512 
Q 2528 4499 2547 4454 
L 3930 454 
Q 3981 294 4083 246 
Q 4186 198 4474 198 
L 4589 198 
L 4589 0 
Q 4186 19 3750 19 
Q 3059 19 2829 0 
L 2829 198 
Q 3360 198 3360 390 
Q 3360 403 3341 480 
L 3002 1459 
L 1421 1459 
L 1126 621 
Q 1114 595 1114 525 
Q 1114 390 1238 294 
Q 1363 198 1594 198 
L 1594 0 
Q 979 19 858 19 
Q 646 19 205 0 
z
M 1491 1658 
L 2931 1658 
L 2208 3738 
L 1491 1658 
z
" transform="scale(0.015625)"/>
       <path id="CMUSerif-Roman-6e" d="M 205 0 
L 205 198 
Q 544 198 624 240 
Q 704 282 704 486 
L 704 2202 
Q 704 2438 621 2499 
Q 538 2560 205 2560 
L 205 2758 
L 1107 2829 
L 1107 2157 
Q 1408 2829 2054 2829 
Q 2534 2829 2726 2592 
Q 2867 2432 2896 2253 
Q 2925 2074 2925 1613 
L 2925 390 
Q 2931 256 3033 227 
Q 3136 198 3424 198 
L 3424 0 
Q 2771 19 2707 19 
Q 2656 19 1984 0 
L 1984 198 
Q 2323 198 2403 240 
Q 2483 282 2483 486 
L 2483 1978 
Q 2483 2304 2384 2496 
Q 2285 2688 2010 2688 
Q 1677 2688 1411 2409 
Q 1146 2131 1146 1664 
L 1146 486 
Q 1146 282 1226 240 
Q 1306 198 1645 198 
L 1645 0 
Q 992 19 928 19 
Q 877 19 205 0 
z
" transform="scale(0.015625)"/>
       <path id="CMUSerif-Roman-73" d="M 211 83 
L 211 928 
Q 211 998 214 1024 
Q 218 1050 237 1069 
Q 256 1088 294 1088 
Q 339 1088 355 1069 
Q 371 1050 384 979 
Q 480 538 688 304 
Q 896 70 1274 70 
Q 1632 70 1814 230 
Q 1997 390 1997 653 
Q 1997 1120 1331 1242 
Q 947 1318 787 1369 
Q 627 1421 486 1536 
Q 211 1760 211 2080 
Q 211 2400 454 2633 
Q 698 2867 1235 2867 
Q 1594 2867 1837 2688 
Q 1907 2746 1946 2790 
Q 2029 2867 2074 2867 
Q 2125 2867 2134 2835 
Q 2144 2803 2144 2714 
L 2144 2067 
Q 2144 1997 2141 1971 
Q 2138 1946 2118 1930 
Q 2099 1914 2061 1914 
Q 1990 1914 1984 1971 
Q 1933 2746 1235 2746 
Q 858 2746 688 2602 
Q 518 2458 518 2259 
Q 518 2150 569 2067 
Q 621 1984 688 1936 
Q 755 1888 880 1843 
Q 1005 1798 1081 1782 
Q 1158 1766 1306 1734 
Q 1818 1638 2035 1427 
Q 2304 1158 2304 819 
Q 2304 442 2048 186 
Q 1792 -70 1274 -70 
Q 858 -70 570 205 
Q 531 166 502 134 
Q 474 102 464 89 
Q 454 77 451 70 
Q 448 64 442 58 
Q 314 -70 282 -70 
Q 230 -70 220 -38 
Q 211 -6 211 83 
z
" transform="scale(0.015625)"/>
       <path id="CMUSerif-Roman-77" d="M 115 2560 
L 115 2758 
Q 461 2739 710 2739 
Q 832 2739 1408 2758 
L 1408 2560 
Q 1030 2560 1030 2387 
Q 1030 2349 1062 2272 
L 1670 563 
L 2221 2112 
Q 2106 2426 2074 2464 
Q 1997 2560 1670 2560 
L 1670 2758 
Q 1958 2739 2240 2739 
Q 2349 2739 2906 2758 
L 2906 2560 
Q 2528 2560 2528 2387 
Q 2528 2362 2560 2266 
L 3194 480 
L 3776 2118 
Q 3808 2202 3808 2253 
Q 3808 2394 3709 2474 
Q 3610 2554 3437 2560 
L 3437 2758 
Q 3802 2739 4032 2739 
Q 4288 2739 4499 2758 
L 4499 2560 
Q 4102 2547 3962 2150 
L 3213 51 
Q 3142 -64 3085 -70 
Q 3002 -70 2957 51 
L 2304 1869 
L 1658 58 
Q 1632 -19 1609 -44 
Q 1587 -70 1529 -70 
Q 1472 -70 1446 -38 
Q 1421 -6 1395 70 
L 589 2336 
Q 531 2483 448 2521 
Q 365 2560 115 2560 
z
" transform="scale(0.015625)"/>
       <path id="CMUSerif-Roman-65" d="M 179 1408 
Q 179 2010 566 2438 
Q 954 2867 1510 2867 
Q 2074 2867 2365 2502 
Q 2656 2138 2656 1613 
Q 2656 1517 2630 1497 
Q 2605 1478 2496 1478 
L 710 1478 
Q 710 826 902 518 
Q 1171 90 1626 90 
Q 1690 90 1763 102 
Q 1837 115 1990 169 
Q 2144 224 2278 371 
Q 2413 518 2490 749 
Q 2509 838 2573 838 
Q 2656 838 2656 762 
Q 2656 704 2595 579 
Q 2534 454 2419 304 
Q 2304 154 2080 42 
Q 1856 -70 1587 -70 
Q 1024 -70 601 355 
Q 179 781 179 1408 
z
M 717 1613 
L 2234 1613 
Q 2234 1747 2211 1897 
Q 2189 2048 2121 2256 
Q 2054 2464 1897 2595 
Q 1741 2726 1510 2726 
Q 1408 2726 1296 2681 
Q 1184 2637 1049 2531 
Q 915 2426 822 2186 
Q 730 1946 717 1613 
z
" transform="scale(0.015625)"/>
       <path id="CMUSerif-Roman-72" d="M 179 0 
L 179 198 
Q 518 198 598 240 
Q 678 282 678 486 
L 678 2202 
Q 678 2438 595 2499 
Q 512 2560 179 2560 
L 179 2758 
L 1069 2829 
L 1069 2125 
Q 1158 2400 1350 2614 
Q 1542 2829 1856 2829 
Q 2061 2829 2195 2713 
Q 2330 2598 2330 2438 
Q 2330 2298 2243 2227 
Q 2157 2157 2054 2157 
Q 1939 2157 1859 2230 
Q 1779 2304 1779 2432 
Q 1779 2509 1814 2569 
Q 1850 2630 1878 2652 
Q 1907 2675 1926 2682 
Q 1914 2688 1856 2688 
Q 1504 2688 1302 2336 
Q 1101 1984 1101 1485 
L 1101 499 
Q 1101 314 1177 256 
Q 1254 198 1587 198 
L 1722 198 
L 1722 0 
Q 1466 19 909 19 
Q 832 19 710 16 
Q 589 13 429 6 
Q 269 0 179 0 
z
" transform="scale(0.015625)"/>
       <path id="CMUSerif-Roman-20" transform="scale(0.015625)"/>
       <path id="CMUSerif-Roman-43" d="M 358 2189 
Q 358 3155 1017 3833 
Q 1677 4512 2586 4512 
Q 2867 4512 3116 4409 
Q 3366 4307 3481 4217 
Q 3597 4128 3763 3962 
L 4083 4435 
Q 4134 4512 4185 4512 
Q 4237 4512 4246 4483 
Q 4256 4454 4256 4358 
L 4256 2842 
Q 4256 2739 4243 2713 
Q 4230 2688 4154 2688 
Q 4090 2688 4077 2707 
Q 4064 2726 4051 2797 
Q 3955 3488 3571 3901 
Q 3187 4314 2656 4314 
Q 2502 4314 2332 4278 
Q 2163 4243 1916 4112 
Q 1670 3981 1481 3763 
Q 1293 3546 1155 3136 
Q 1018 2726 1018 2182 
Q 1018 1645 1155 1232 
Q 1293 819 1481 604 
Q 1670 390 1916 259 
Q 2163 128 2336 93 
Q 2509 58 2662 58 
Q 3213 58 3635 448 
Q 4058 838 4096 1498 
Q 4102 1530 4102 1542 
Q 4102 1555 4108 1571 
Q 4115 1587 4131 1593 
Q 4147 1600 4173 1600 
Q 4256 1600 4256 1491 
Q 4256 883 3789 371 
Q 3322 -141 2586 -141 
Q 1677 -141 1017 534 
Q 358 1210 358 2189 
z
" transform="scale(0.015625)"/>
       <path id="CMUSerif-Roman-6f" d="M 601 346 
Q 179 762 179 1370 
Q 179 1978 592 2422 
Q 1005 2867 1600 2867 
Q 2182 2867 2598 2425 
Q 3014 1984 3014 1370 
Q 3014 768 2595 349 
Q 2176 -70 1594 -70 
Q 1024 -70 601 346 
z
M 710 1421 
Q 710 800 870 518 
Q 1120 90 1600 90 
Q 1837 90 2035 218 
Q 2234 346 2342 563 
Q 2483 845 2483 1421 
Q 2483 2035 2317 2310 
Q 2067 2726 1594 2726 
Q 1389 2726 1187 2617 
Q 986 2509 864 2298 
Q 710 2016 710 1421 
z
" transform="scale(0.015625)"/>
       <path id="CMUSerif-Roman-76" d="M 122 2560 
L 122 2758 
Q 410 2739 742 2739 
Q 864 2739 1440 2758 
L 1440 2560 
Q 1075 2560 1075 2394 
Q 1075 2368 1114 2285 
L 1830 499 
L 2483 2131 
Q 2522 2240 2522 2285 
Q 2522 2394 2448 2474 
Q 2374 2554 2214 2560 
L 2214 2758 
Q 2541 2739 2771 2739 
Q 3034 2739 3251 2758 
L 3251 2560 
Q 3059 2560 2924 2473 
Q 2790 2387 2748 2313 
Q 2707 2240 2662 2131 
L 1824 51 
Q 1773 -70 1690 -70 
Q 1632 -70 1609 -48 
Q 1587 -26 1555 51 
L 634 2323 
Q 570 2483 490 2521 
Q 410 2560 122 2560 
z
" transform="scale(0.015625)"/>
       <path id="CMUSerif-Roman-61" d="M 269 608 
Q 269 1152 909 1440 
Q 1293 1626 2086 1670 
L 2086 1907 
Q 2086 2304 1878 2515 
Q 1670 2726 1408 2726 
Q 941 2726 717 2432 
Q 909 2426 976 2330 
Q 1043 2234 1043 2138 
Q 1043 2010 963 1926 
Q 883 1843 749 1843 
Q 621 1843 537 1923 
Q 454 2003 454 2144 
Q 454 2458 736 2662 
Q 1018 2867 1421 2867 
Q 1946 2867 2298 2515 
Q 2406 2406 2460 2265 
Q 2515 2125 2521 2032 
Q 2528 1939 2528 1760 
L 2528 480 
Q 2528 442 2541 381 
Q 2554 320 2611 240 
Q 2669 160 2765 160 
Q 2995 160 2995 570 
L 2995 928 
L 3155 928 
L 3155 570 
Q 3155 230 2976 96 
Q 2797 -38 2630 -38 
Q 2419 -38 2284 118 
Q 2150 275 2131 486 
Q 2035 243 1814 86 
Q 1594 -70 1293 -70 
Q 1062 -70 844 -12 
Q 627 45 448 205 
Q 269 365 269 608 
z
M 762 614 
Q 762 378 931 224 
Q 1101 70 1338 70 
Q 1606 70 1846 278 
Q 2086 486 2086 896 
L 2086 1536 
Q 1376 1510 1069 1228 
Q 762 947 762 614 
z
" transform="scale(0.015625)"/>
       <path id="CMUSerif-Roman-67" d="M 179 -506 
Q 179 -301 336 -121 
Q 493 58 768 134 
Q 486 314 486 704 
Q 486 1005 685 1235 
Q 384 1485 384 1894 
Q 384 2272 685 2550 
Q 986 2829 1421 2829 
Q 1805 2829 2099 2598 
Q 2406 2899 2778 2899 
Q 2944 2899 3024 2796 
Q 3104 2694 3104 2586 
Q 3104 2490 3043 2442 
Q 2982 2394 2918 2394 
Q 2842 2394 2787 2445 
Q 2733 2496 2733 2579 
Q 2733 2714 2835 2752 
Q 2816 2758 2771 2758 
Q 2458 2758 2195 2509 
Q 2458 2266 2458 1888 
Q 2458 1510 2157 1232 
Q 1856 954 1421 954 
Q 1062 954 787 1152 
Q 678 1024 678 851 
Q 678 691 774 566 
Q 870 442 1018 422 
Q 1062 416 1498 416 
Q 1754 416 1894 409 
Q 2035 403 2236 361 
Q 2438 320 2598 237 
Q 3014 6 3014 -493 
Q 3014 -858 2595 -1088 
Q 2176 -1318 1594 -1318 
Q 1005 -1318 592 -1084 
Q 179 -851 179 -506 
z
M 512 -506 
Q 512 -768 822 -969 
Q 1133 -1171 1600 -1171 
Q 2061 -1171 2371 -972 
Q 2682 -774 2682 -506 
Q 2682 -314 2573 -192 
Q 2464 -70 2240 -22 
Q 2016 26 1859 35 
Q 1702 45 1414 45 
L 1037 45 
Q 819 32 665 -128 
Q 512 -288 512 -506 
z
M 864 1888 
Q 864 1101 1421 1101 
Q 1702 1101 1875 1357 
Q 1978 1530 1978 1894 
Q 1978 2682 1421 2682 
Q 1139 2682 966 2426 
Q 864 2253 864 1888 
z
" transform="scale(0.015625)"/>
       <path id="CMUSerif-Roman-52" d="M 224 0 
L 224 198 
L 378 198 
Q 723 198 803 256 
Q 883 314 883 499 
L 883 3872 
Q 883 4058 803 4115 
Q 723 4173 378 4173 
L 224 4173 
L 224 4371 
L 2234 4371 
Q 2931 4371 3417 4028 
Q 3904 3686 3904 3219 
Q 3904 2861 3587 2579 
Q 3270 2298 2784 2176 
Q 3418 1958 3565 1434 
L 3648 922 
Q 3674 736 3690 643 
Q 3706 550 3734 422 
Q 3763 294 3792 233 
Q 3821 173 3865 109 
Q 3910 45 3968 22 
Q 4026 0 4102 0 
Q 4250 0 4374 131 
Q 4499 262 4525 570 
Q 4538 672 4602 672 
Q 4685 672 4685 563 
Q 4685 480 4659 374 
Q 4634 269 4573 147 
Q 4512 26 4381 -57 
Q 4250 -141 4077 -141 
Q 3578 -141 3270 128 
Q 3142 243 3084 393 
Q 3027 544 3017 662 
Q 3008 781 3008 1043 
Q 3008 1414 2969 1577 
Q 2931 1741 2765 1901 
Q 2541 2118 2170 2118 
L 1434 2118 
L 1434 499 
Q 1434 314 1514 256 
Q 1594 198 1939 198 
L 2093 198 
L 2093 0 
Q 1862 19 1158 19 
Q 454 19 224 0 
z
M 1434 2259 
L 2144 2259 
Q 2483 2259 2713 2342 
Q 2944 2426 3053 2576 
Q 3162 2726 3203 2876 
Q 3245 3027 3245 3219 
Q 3245 3443 3193 3612 
Q 3142 3782 3033 3881 
Q 2925 3981 2816 4045 
Q 2707 4109 2537 4134 
Q 2368 4160 2253 4166 
Q 2138 4173 1952 4173 
Q 1638 4173 1574 4160 
Q 1504 4154 1475 4118 
Q 1446 4083 1440 4044 
Q 1434 4006 1434 3917 
L 1434 2259 
z
" transform="scale(0.015625)"/>
       <path id="CMUSerif-Roman-74" d="M 122 2560 
L 122 2701 
Q 416 2714 611 2922 
Q 806 3130 873 3386 
Q 941 3642 947 3936 
L 1107 3936 
L 1107 2758 
L 2022 2758 
L 2022 2560 
L 1107 2560 
L 1107 781 
Q 1107 90 1536 90 
Q 1722 90 1843 278 
Q 1965 467 1965 806 
L 1965 1158 
L 2125 1158 
L 2125 794 
Q 2125 448 1965 189 
Q 1805 -70 1491 -70 
Q 1376 -70 1261 -41 
Q 1146 -13 998 64 
Q 851 141 758 329 
Q 666 518 666 794 
L 666 2560 
L 122 2560 
z
" transform="scale(0.015625)"/>
      </defs>
      <use xlink:href="#CMUSerif-Roman-41"/>
      <use xlink:href="#CMUSerif-Roman-6e" x="74.999985"/>
      <use xlink:href="#CMUSerif-Roman-73" x="130.499969"/>
      <use xlink:href="#CMUSerif-Roman-77" x="169.899963"/>
      <use xlink:href="#CMUSerif-Roman-65" x="242.099945"/>
      <use xlink:href="#CMUSerif-Roman-72" x="286.499939"/>
      <use xlink:href="#CMUSerif-Roman-20" x="325.59993"/>
      <use xlink:href="#CMUSerif-Roman-43" x="358.899918"/>
      <use xlink:href="#CMUSerif-Roman-6f" x="431.099899"/>
      <use xlink:href="#CMUSerif-Roman-76" x="481.099884"/>
      <use xlink:href="#CMUSerif-Roman-65" x="533.799881"/>
      <use xlink:href="#CMUSerif-Roman-72" x="578.199875"/>
      <use xlink:href="#CMUSerif-Roman-61" x="617.299866"/>
      <use xlink:href="#CMUSerif-Roman-67" x="667.29985"/>
      <use xlink:href="#CMUSerif-Roman-65" x="717.299835"/>
      <use xlink:href="#CMUSerif-Roman-20" x="761.699829"/>
      <use xlink:href="#CMUSerif-Roman-52" x="794.999817"/>
      <use xlink:href="#CMUSerif-Roman-61" x="868.599808"/>
      <use xlink:href="#CMUSerif-Roman-74" x="918.599792"/>
      <use xlink:href="#CMUSerif-Roman-65" x="957.39978"/>
     </g>
    </g>
   </g>
   <g id="PolyCollection_1"/>
   <g id="line2d_12">
    <path d="M 53.184298 22.423603 
L 70.746716 21.016765 
L 123.433971 20.524371 
L 211.246064 19.961636 
L 386.870248 19.820952 
" clip-path="url(#pc6c9661ad9)" style="fill: none; stroke: #377eb8; stroke-width: 1.5; stroke-linecap: round"/>
   </g>
   <g id="patch_3">
    <path d="M 36.5 172.251875 
L 36.5 16.79625 
" style="fill: none; stroke: #ffffff; stroke-width: 1.25; stroke-linejoin: miter; stroke-linecap: square"/>
   </g>
   <g id="patch_4">
    <path d="M 403.554545 172.251875 
L 403.554545 16.79625 
" style="fill: none; stroke: #ffffff; stroke-width: 1.25; stroke-linejoin: miter; stroke-linecap: square"/>
   </g>
   <g id="patch_5">
    <path d="M 36.5 172.251875 
L 403.554545 172.251875 
" style="fill: none; stroke: #ffffff; stroke-width: 1.25; stroke-linejoin: miter; stroke-linecap: square"/>
   </g>
   <g id="patch_6">
    <path d="M 36.5 16.79625 
L 403.554545 16.79625 
" style="fill: none; stroke: #ffffff; stroke-width: 1.25; stroke-linejoin: miter; stroke-linecap: square"/>
   </g>
   <g id="text_8">
    <!-- WikidataSimpleQuestions (max_depth=1) -->
    <g style="fill: #262626" transform="translate(107.237585 10.79625) scale(0.12 -0.12)">
     <defs>
      <path id="CMUSerif-Roman-57" d="M 115 4173 
L 115 4371 
Q 205 4371 368 4364 
Q 531 4358 659 4355 
Q 787 4352 896 4352 
Q 1574 4352 1805 4371 
L 1805 4173 
Q 1267 4173 1267 3981 
Q 1267 3936 1280 3898 
L 2310 749 
L 3200 3494 
L 3059 3942 
Q 3008 4102 2899 4137 
Q 2790 4173 2483 4173 
L 2483 4371 
Q 2573 4371 2736 4364 
Q 2899 4358 3027 4355 
Q 3155 4352 3264 4352 
Q 3942 4352 4173 4371 
L 4173 4173 
Q 3635 4173 3635 3981 
Q 3635 3962 3654 3885 
L 4678 749 
L 5638 3706 
Q 5670 3802 5670 3834 
Q 5670 3949 5536 4057 
Q 5402 4166 5114 4173 
L 5114 4371 
Q 5613 4352 5875 4352 
Q 6170 4352 6458 4371 
L 6458 4173 
Q 5952 4173 5818 3744 
L 4595 -13 
Q 4582 -64 4572 -86 
Q 4563 -109 4537 -125 
Q 4512 -141 4467 -141 
Q 4384 -141 4346 -19 
L 3283 3238 
L 2227 -13 
Q 2214 -64 2204 -86 
Q 2195 -109 2169 -125 
Q 2144 -141 2099 -141 
Q 2016 -141 1978 -19 
L 698 3904 
Q 640 4090 553 4131 
Q 467 4173 115 4173 
z
" transform="scale(0.015625)"/>
      <path id="CMUSerif-Roman-69" d="M 211 0 
L 211 198 
Q 550 198 630 240 
Q 710 282 710 486 
L 710 2208 
Q 710 2445 630 2502 
Q 550 2560 237 2560 
L 237 2758 
L 1133 2829 
L 1133 480 
Q 1133 288 1200 243 
Q 1267 198 1581 198 
L 1581 0 
Q 928 19 915 19 
Q 826 19 211 0 
z
M 480 3942 
Q 480 4070 579 4176 
Q 678 4282 819 4282 
Q 960 4282 1059 4186 
Q 1158 4090 1158 3942 
Q 1158 3795 1059 3699 
Q 960 3603 819 3603 
Q 672 3603 576 3705 
Q 480 3808 480 3942 
z
" transform="scale(0.015625)"/>
      <path id="CMUSerif-Roman-6b" d="M 179 0 
L 179 198 
Q 518 198 598 240 
Q 678 282 678 486 
L 678 3814 
Q 678 4051 595 4112 
Q 512 4173 179 4173 
L 179 4371 
L 1101 4442 
L 1101 1370 
L 2003 2150 
Q 2144 2272 2144 2400 
Q 2144 2547 1958 2560 
L 1958 2758 
Q 2227 2739 2675 2739 
Q 2938 2739 3123 2758 
L 3123 2560 
Q 2720 2541 2317 2214 
Q 2227 2144 2012 1958 
Q 1798 1773 1798 1754 
Q 1798 1747 1804 1731 
Q 1811 1715 1824 1702 
Q 1837 1690 1837 1683 
L 2650 538 
Q 2816 307 2937 252 
Q 3059 198 3270 198 
L 3270 0 
Q 2995 19 2714 19 
Q 2560 19 2022 0 
L 2022 198 
Q 2253 198 2253 346 
Q 2253 448 1734 1165 
Q 1696 1216 1613 1325 
Q 1536 1440 1491 1498 
L 1082 1146 
L 1082 486 
Q 1082 282 1162 240 
Q 1242 198 1581 198 
L 1581 0 
Q 1197 19 877 19 
Q 813 19 179 0 
z
" transform="scale(0.015625)"/>
      <path id="CMUSerif-Roman-64" d="M 218 1376 
Q 218 1984 643 2406 
Q 1069 2829 1645 2829 
Q 2131 2829 2451 2432 
L 2451 3814 
Q 2451 4051 2368 4112 
Q 2285 4173 1952 4173 
L 1952 4371 
L 2874 4442 
L 2874 557 
Q 2874 320 2957 259 
Q 3040 198 3373 198 
L 3373 0 
L 2432 -70 
L 2432 352 
Q 2099 -70 1574 -70 
Q 1024 -70 621 352 
Q 218 774 218 1376 
z
M 749 1370 
Q 749 774 934 480 
Q 1190 70 1606 70 
Q 2080 70 2362 518 
Q 2432 627 2432 755 
L 2432 2067 
Q 2432 2195 2362 2304 
Q 2099 2688 1670 2688 
Q 1222 2688 947 2278 
Q 749 1971 749 1370 
z
" transform="scale(0.015625)"/>
      <path id="CMUSerif-Roman-53" d="M 358 13 
L 358 1293 
Q 358 1363 361 1388 
Q 365 1414 384 1433 
Q 403 1453 442 1453 
Q 512 1453 518 1389 
Q 538 755 915 403 
Q 1286 58 1926 58 
Q 2310 58 2547 333 
Q 2784 608 2784 973 
Q 2784 1318 2586 1562 
Q 2502 1670 2396 1740 
Q 2291 1811 2227 1833 
Q 2163 1856 2042 1888 
Q 1248 2080 1197 2099 
Q 819 2227 588 2550 
Q 358 2874 358 3270 
Q 358 3782 720 4147 
Q 1082 4512 1606 4512 
Q 1869 4512 2089 4429 
Q 2310 4346 2400 4272 
Q 2490 4198 2630 4064 
L 2854 4429 
Q 2906 4512 2950 4512 
Q 3002 4512 3011 4483 
Q 3021 4454 3021 4358 
L 3021 3072 
Q 3021 3002 3017 2976 
Q 3014 2950 2995 2934 
Q 2976 2918 2938 2918 
Q 2874 2918 2861 2995 
Q 2682 4333 1613 4333 
Q 1248 4333 1008 4086 
Q 768 3840 768 3494 
Q 768 3213 944 2982 
Q 1120 2752 1414 2682 
L 2234 2483 
Q 2643 2387 2918 2025 
Q 3194 1664 3194 1190 
Q 3194 646 2838 252 
Q 2483 -141 1933 -141 
Q 1536 -141 1229 -9 
Q 922 122 755 307 
Q 627 96 544 -26 
L 525 -58 
Q 474 -141 429 -141 
Q 378 -141 368 -109 
Q 358 -77 358 13 
z
" transform="scale(0.015625)"/>
      <path id="CMUSerif-Roman-6d" d="M 205 0 
L 205 198 
Q 544 198 624 240 
Q 704 282 704 486 
L 704 2202 
Q 704 2438 621 2499 
Q 538 2560 205 2560 
L 205 2758 
L 1107 2829 
L 1107 2157 
Q 1408 2829 2054 2829 
Q 2803 2829 2906 2202 
Q 3014 2445 3244 2637 
Q 3475 2829 3834 2829 
Q 4314 2829 4506 2592 
Q 4646 2432 4675 2253 
Q 4704 2074 4704 1613 
L 4704 390 
Q 4710 256 4812 227 
Q 4915 198 5203 198 
L 5203 0 
Q 4550 19 4486 19 
Q 4435 19 3763 0 
L 3763 198 
Q 4102 198 4182 240 
Q 4262 282 4262 486 
L 4262 1978 
Q 4262 2304 4163 2496 
Q 4064 2688 3789 2688 
Q 3456 2688 3190 2409 
Q 2925 2131 2925 1664 
L 2925 486 
Q 2925 282 3005 240 
Q 3085 198 3424 198 
L 3424 0 
Q 2771 19 2707 19 
Q 2656 19 1984 0 
L 1984 198 
Q 2323 198 2403 240 
Q 2483 282 2483 486 
L 2483 1978 
Q 2483 2304 2384 2496 
Q 2285 2688 2010 2688 
Q 1677 2688 1411 2409 
Q 1146 2131 1146 1664 
L 1146 486 
Q 1146 282 1226 240 
Q 1306 198 1645 198 
L 1645 0 
Q 992 19 928 19 
Q 877 19 205 0 
z
" transform="scale(0.015625)"/>
      <path id="CMUSerif-Roman-70" d="M 179 -1043 
Q 518 -1043 598 -1001 
Q 678 -960 678 -755 
L 678 2240 
Q 678 2451 598 2505 
Q 518 2560 179 2560 
L 179 2758 
L 1101 2829 
L 1101 2406 
Q 1485 2829 1997 2829 
Q 2541 2829 2937 2406 
Q 3334 1984 3334 1382 
Q 3334 774 2912 352 
Q 2490 -70 1907 -70 
Q 1587 -70 1372 93 
Q 1158 256 1120 378 
L 1120 320 
L 1120 -755 
Q 1120 -960 1200 -1001 
Q 1280 -1043 1619 -1043 
L 1619 -1242 
Q 947 -1222 896 -1222 
Q 832 -1222 179 -1242 
L 179 -1043 
z
M 1120 730 
Q 1120 634 1133 598 
Q 1146 563 1210 461 
Q 1466 70 1882 70 
Q 2246 70 2524 444 
Q 2803 819 2803 1382 
Q 2803 1920 2550 2294 
Q 2298 2669 1946 2669 
Q 1696 2669 1478 2534 
Q 1261 2400 1120 2157 
L 1120 730 
z
" transform="scale(0.015625)"/>
      <path id="CMUSerif-Roman-6c" d="M 211 0 
L 211 198 
Q 550 198 630 240 
Q 710 282 710 486 
L 710 3814 
Q 710 4051 627 4112 
Q 544 4173 211 4173 
L 211 4371 
L 1133 4442 
L 1133 486 
Q 1133 282 1213 240 
Q 1293 198 1632 198 
L 1632 0 
Q 1555 0 1392 6 
Q 1229 13 1110 16 
Q 992 19 922 19 
Q 845 19 211 0 
z
" transform="scale(0.015625)"/>
      <path id="CMUSerif-Roman-51" d="M 358 2170 
Q 358 3149 985 3830 
Q 1613 4512 2483 4512 
Q 3360 4512 3987 3827 
Q 4614 3142 4614 2170 
Q 4614 1459 4252 883 
Q 3891 307 3315 45 
Q 3437 -282 3574 -432 
Q 3712 -582 3929 -582 
Q 4147 -582 4316 -438 
Q 4486 -294 4512 -45 
Q 4525 70 4582 70 
Q 4653 70 4653 -64 
Q 4653 -218 4621 -390 
Q 4589 -563 4512 -768 
Q 4435 -973 4272 -1107 
Q 4109 -1242 3878 -1242 
Q 3706 -1242 3578 -1168 
Q 3450 -1094 3376 -1004 
Q 3302 -915 3241 -723 
Q 3181 -531 3158 -409 
Q 3136 -288 3098 -45 
Q 2790 -141 2490 -141 
Q 1613 -141 985 531 
Q 358 1203 358 2170 
z
M 998 2170 
Q 998 1651 1110 1251 
Q 1222 851 1404 624 
Q 1587 397 1744 278 
Q 1901 160 2061 102 
Q 1971 282 1971 410 
Q 1971 621 2118 784 
Q 2266 947 2496 947 
Q 2950 947 3219 269 
Q 3974 826 3974 2170 
Q 3974 2752 3830 3193 
Q 3686 3635 3456 3878 
Q 3226 4122 2979 4237 
Q 2733 4352 2483 4352 
Q 2240 4352 1997 4240 
Q 1754 4128 1523 3891 
Q 1293 3654 1145 3206 
Q 998 2758 998 2170 
z
M 2112 410 
Q 2112 339 2134 262 
Q 2157 186 2249 102 
Q 2342 19 2490 19 
Q 2790 19 3053 166 
Q 2931 806 2496 806 
Q 2323 806 2217 684 
Q 2112 563 2112 410 
z
" transform="scale(0.015625)"/>
      <path id="CMUSerif-Roman-75" d="M 205 2560 
L 205 2758 
L 1146 2829 
L 1146 704 
Q 1146 550 1158 460 
Q 1171 371 1222 268 
Q 1274 166 1395 118 
Q 1517 70 1709 70 
Q 2054 70 2268 355 
Q 2483 640 2483 1062 
L 2483 2202 
Q 2483 2438 2400 2499 
Q 2317 2560 1984 2560 
L 1984 2758 
L 2925 2829 
L 2925 557 
Q 2925 320 3008 259 
Q 3091 198 3424 198 
L 3424 0 
L 2502 -70 
L 2502 506 
Q 2234 -70 1677 -70 
Q 1395 -70 1203 0 
Q 1011 70 915 160 
Q 819 250 768 422 
Q 717 595 710 700 
Q 704 806 704 1011 
L 704 1971 
Q 704 2406 640 2483 
Q 576 2560 205 2560 
z
" transform="scale(0.015625)"/>
      <path id="CMUSerif-Roman-28" d="M 634 1600 
Q 634 2682 1037 3552 
Q 1210 3917 1450 4224 
Q 1690 4531 1850 4665 
Q 2010 4800 2054 4800 
Q 2118 4800 2118 4736 
Q 2118 4704 2035 4627 
Q 1005 3578 1005 1600 
Q 1005 -384 2010 -1395 
Q 2118 -1504 2118 -1536 
Q 2118 -1600 2054 -1600 
Q 2010 -1600 1856 -1472 
Q 1702 -1344 1465 -1049 
Q 1229 -755 1056 -397 
Q 634 474 634 1600 
z
" transform="scale(0.015625)"/>
      <path id="CMUSerif-Roman-78" d="M 77 0 
L 77 198 
Q 576 198 896 582 
Q 896 582 1498 1344 
L 864 2170 
Q 640 2458 541 2509 
Q 442 2560 109 2560 
L 109 2758 
Q 371 2739 717 2739 
Q 909 2739 1408 2758 
L 1408 2560 
Q 1184 2547 1184 2400 
Q 1184 2349 1242 2285 
L 1741 1638 
L 2138 2138 
Q 2234 2253 2234 2362 
Q 2234 2541 2048 2560 
L 2048 2758 
Q 2298 2739 2662 2739 
Q 2938 2739 3187 2758 
L 3187 2560 
Q 2701 2547 2426 2227 
Q 2304 2093 1837 1504 
L 2694 397 
Q 2797 262 2912 230 
Q 3027 198 3302 198 
L 3302 0 
Q 3014 19 2688 19 
Q 2573 19 1997 0 
L 1997 198 
Q 2112 205 2169 256 
Q 2227 307 2227 358 
Q 2227 384 2093 570 
L 1606 1210 
Q 1120 634 1056 499 
Q 1030 442 1030 397 
Q 1030 224 1216 198 
L 1216 0 
Q 755 19 608 19 
Q 326 19 77 0 
z
" transform="scale(0.015625)"/>
      <path id="CMUSerif-Roman-5f" d="M 723 -1491 
Q 538 -1491 538 -1363 
Q 538 -1235 730 -1235 
L 4237 -1235 
Q 4429 -1235 4429 -1363 
Q 4429 -1491 4250 -1491 
L 723 -1491 
z
" transform="scale(0.015625)"/>
      <path id="CMUSerif-Roman-68" d="M 205 0 
L 205 198 
Q 544 198 624 240 
Q 704 282 704 486 
L 704 3814 
Q 704 4051 621 4112 
Q 538 4173 205 4173 
L 205 4371 
L 1126 4442 
L 1126 2214 
L 1133 2214 
Q 1235 2445 1465 2637 
Q 1696 2829 2054 2829 
Q 2534 2829 2726 2592 
Q 2867 2432 2896 2253 
Q 2925 2074 2925 1613 
L 2925 390 
Q 2931 256 3033 227 
Q 3136 198 3424 198 
L 3424 0 
Q 2771 19 2707 19 
Q 2656 19 1984 0 
L 1984 198 
Q 2323 198 2403 240 
Q 2483 282 2483 486 
L 2483 1978 
Q 2483 2304 2384 2496 
Q 2285 2688 2010 2688 
Q 1677 2688 1411 2409 
Q 1146 2131 1146 1664 
L 1146 486 
Q 1146 282 1226 240 
Q 1306 198 1645 198 
L 1645 0 
Q 992 19 928 19 
Q 877 19 205 0 
z
" transform="scale(0.015625)"/>
      <path id="CMUSerif-Roman-3d" d="M 365 973 
Q 371 1050 493 1050 
L 4416 1050 
Q 4602 1050 4602 979 
Q 4602 902 4429 902 
L 538 902 
Q 365 902 365 973 
z
M 365 2221 
Q 365 2298 499 2298 
L 4410 2298 
Q 4602 2298 4602 2221 
Q 4602 2150 4442 2150 
L 493 2150 
Q 365 2150 365 2221 
z
" transform="scale(0.015625)"/>
      <path id="CMUSerif-Roman-29" d="M 365 -1536 
Q 365 -1504 448 -1427 
Q 1478 -378 1478 1600 
Q 1478 3584 486 4589 
Q 365 4704 365 4736 
Q 365 4800 429 4800 
Q 474 4800 627 4672 
Q 781 4544 1017 4249 
Q 1254 3955 1427 3597 
Q 1850 2726 1850 1600 
Q 1850 518 1446 -352 
Q 1274 -717 1034 -1024 
Q 794 -1331 634 -1465 
Q 474 -1600 429 -1600 
Q 365 -1600 365 -1536 
z
" transform="scale(0.015625)"/>
     </defs>
     <use xlink:href="#CMUSerif-Roman-57"/>
     <use xlink:href="#CMUSerif-Roman-69" x="102.699982"/>
     <use xlink:href="#CMUSerif-Roman-6b" x="130.399979"/>
     <use xlink:href="#CMUSerif-Roman-69" x="183.099976"/>
     <use xlink:href="#CMUSerif-Roman-64" x="210.799973"/>
     <use xlink:href="#CMUSerif-Roman-61" x="266.299957"/>
     <use xlink:href="#CMUSerif-Roman-74" x="316.299942"/>
     <use xlink:href="#CMUSerif-Roman-61" x="355.09993"/>
     <use xlink:href="#CMUSerif-Roman-53" x="405.099915"/>
     <use xlink:href="#CMUSerif-Roman-69" x="460.599899"/>
     <use xlink:href="#CMUSerif-Roman-6d" x="488.299896"/>
     <use xlink:href="#CMUSerif-Roman-70" x="571.599884"/>
     <use xlink:href="#CMUSerif-Roman-6c" x="627.099869"/>
     <use xlink:href="#CMUSerif-Roman-65" x="654.799866"/>
     <use xlink:href="#CMUSerif-Roman-51" x="699.19986"/>
     <use xlink:href="#CMUSerif-Roman-75" x="776.899841"/>
     <use xlink:href="#CMUSerif-Roman-65" x="832.399826"/>
     <use xlink:href="#CMUSerif-Roman-73" x="876.79982"/>
     <use xlink:href="#CMUSerif-Roman-74" x="916.199814"/>
     <use xlink:href="#CMUSerif-Roman-69" x="954.999802"/>
     <use xlink:href="#CMUSerif-Roman-6f" x="982.699799"/>
     <use xlink:href="#CMUSerif-Roman-6e" x="1032.699783"/>
     <use xlink:href="#CMUSerif-Roman-73" x="1088.199768"/>
     <use xlink:href="#CMUSerif-Roman-20" x="1127.599762"/>
     <use xlink:href="#CMUSerif-Roman-28" x="1160.89975"/>
     <use xlink:href="#CMUSerif-Roman-6d" x="1199.699738"/>
     <use xlink:href="#CMUSerif-Roman-61" x="1282.999725"/>
     <use xlink:href="#CMUSerif-Roman-78" x="1332.99971"/>
     <use xlink:href="#CMUSerif-Roman-5f" x="1385.699707"/>
     <use xlink:href="#CMUSerif-Roman-64" x="1463.499695"/>
     <use xlink:href="#CMUSerif-Roman-65" x="1518.99968"/>
     <use xlink:href="#CMUSerif-Roman-70" x="1563.399673"/>
     <use xlink:href="#CMUSerif-Roman-74" x="1618.899658"/>
     <use xlink:href="#CMUSerif-Roman-68" x="1657.699646"/>
     <use xlink:href="#CMUSerif-Roman-3d" x="1713.199631"/>
     <use xlink:href="#CMUSerif-Roman-31" x="1790.999619"/>
     <use xlink:href="#CMUSerif-Roman-29" x="1840.999603"/>
    </g>
   </g>
  </g>
  <g id="axes_2">
   <g id="patch_7">
    <path d="M 476.965455 172.251875 
L 844.02 172.251875 
L 844.02 16.79625 
L 476.965455 16.79625 
z
" style="fill: #f2f2f2"/>
   </g>
   <g id="matplotlib.axis_3">
    <g id="xtick_6">
     <g id="line2d_13">
      <path d="M 493.649752 172.251875 
L 493.649752 16.79625 
" clip-path="url(#pd5fb5aed81)" style="fill: none; stroke: #ffffff; stroke-linecap: round"/>
     </g>
    </g>
    <g id="xtick_7">
     <g id="line2d_14">
      <path d="M 511.212171 172.251875 
L 511.212171 16.79625 
" clip-path="url(#pd5fb5aed81)" style="fill: none; stroke: #ffffff; stroke-linecap: round"/>
     </g>
    </g>
    <g id="xtick_8">
     <g id="line2d_15">
      <path d="M 563.899426 172.251875 
L 563.899426 16.79625 
" clip-path="url(#pd5fb5aed81)" style="fill: none; stroke: #ffffff; stroke-linecap: round"/>
     </g>
    </g>
    <g id="xtick_9">
     <g id="line2d_16">
      <path d="M 651.711518 172.251875 
L 651.711518 16.79625 
" clip-path="url(#pd5fb5aed81)" style="fill: none; stroke: #ffffff; stroke-linecap: round"/>
     </g>
    </g>
    <g id="xtick_10">
     <g id="line2d_17">
      <path d="M 827.335702 172.251875 
L 827.335702 16.79625 
" clip-path="url(#pd5fb5aed81)" style="fill: none; stroke: #ffffff; stroke-linecap: round"/>
     </g>
    </g>
   </g>
   <g id="matplotlib.axis_4">
    <g id="ytick_7">
     <g id="line2d_18">
      <path d="M 476.965455 172.251875 
L 844.02 172.251875 
" clip-path="url(#pd5fb5aed81)" style="fill: none; stroke: #ffffff; stroke-linecap: round"/>
     </g>
     <g id="text_9">
      <!-- 0.0 -->
      <g style="fill: #262626" transform="translate(453.407798 176.069219) scale(0.11 -0.11)">
       <use xlink:href="#CMUSerif-Roman-30"/>
       <use xlink:href="#CMUSerif-Roman-2e" x="49.999985"/>
       <use xlink:href="#CMUSerif-Roman-30" x="77.799973"/>
      </g>
     </g>
    </g>
    <g id="ytick_8">
     <g id="line2d_19">
      <path d="M 476.965455 141.16075 
L 844.02 141.16075 
" clip-path="url(#pd5fb5aed81)" style="fill: none; stroke: #ffffff; stroke-linecap: round"/>
     </g>
     <g id="text_10">
      <!-- 0.2 -->
      <g style="fill: #262626" transform="translate(453.407798 144.978094) scale(0.11 -0.11)">
       <use xlink:href="#CMUSerif-Roman-30"/>
       <use xlink:href="#CMUSerif-Roman-2e" x="49.999985"/>
       <use xlink:href="#CMUSerif-Roman-32" x="77.799973"/>
      </g>
     </g>
    </g>
    <g id="ytick_9">
     <g id="line2d_20">
      <path d="M 476.965455 110.069625 
L 844.02 110.069625 
" clip-path="url(#pd5fb5aed81)" style="fill: none; stroke: #ffffff; stroke-linecap: round"/>
     </g>
     <g id="text_11">
      <!-- 0.4 -->
      <g style="fill: #262626" transform="translate(453.407798 113.886969) scale(0.11 -0.11)">
       <use xlink:href="#CMUSerif-Roman-30"/>
       <use xlink:href="#CMUSerif-Roman-2e" x="49.999985"/>
       <use xlink:href="#CMUSerif-Roman-34" x="77.799973"/>
      </g>
     </g>
    </g>
    <g id="ytick_10">
     <g id="line2d_21">
      <path d="M 476.965455 78.9785 
L 844.02 78.9785 
" clip-path="url(#pd5fb5aed81)" style="fill: none; stroke: #ffffff; stroke-linecap: round"/>
     </g>
     <g id="text_12">
      <!-- 0.6 -->
      <g style="fill: #262626" transform="translate(453.407798 82.795844) scale(0.11 -0.11)">
       <use xlink:href="#CMUSerif-Roman-30"/>
       <use xlink:href="#CMUSerif-Roman-2e" x="49.999985"/>
       <use xlink:href="#CMUSerif-Roman-36" x="77.799973"/>
      </g>
     </g>
    </g>
    <g id="ytick_11">
     <g id="line2d_22">
      <path d="M 476.965455 47.887375 
L 844.02 47.887375 
" clip-path="url(#pd5fb5aed81)" style="fill: none; stroke: #ffffff; stroke-linecap: round"/>
     </g>
     <g id="text_13">
      <!-- 0.8 -->
      <g style="fill: #262626" transform="translate(453.407798 51.704719) scale(0.11 -0.11)">
       <use xlink:href="#CMUSerif-Roman-30"/>
       <use xlink:href="#CMUSerif-Roman-2e" x="49.999985"/>
       <use xlink:href="#CMUSerif-Roman-38" x="77.799973"/>
      </g>
     </g>
    </g>
    <g id="ytick_12">
     <g id="line2d_23">
      <path d="M 476.965455 16.79625 
L 844.02 16.79625 
" clip-path="url(#pd5fb5aed81)" style="fill: none; stroke: #ffffff; stroke-linecap: round"/>
     </g>
     <g id="text_14">
      <!-- 1.0 -->
      <g style="fill: #262626" transform="translate(453.407798 20.613594) scale(0.11 -0.11)">
       <use xlink:href="#CMUSerif-Roman-31"/>
       <use xlink:href="#CMUSerif-Roman-2e" x="49.999985"/>
       <use xlink:href="#CMUSerif-Roman-30" x="77.799973"/>
      </g>
     </g>
    </g>
   </g>
   <g id="PolyCollection_2"/>
   <g id="line2d_24">
    <path d="M 493.649752 84.894068 
L 511.212171 42.541745 
L 563.899426 38.414605 
L 651.711518 30.45512 
L 827.335702 26.917571 
" clip-path="url(#pd5fb5aed81)" style="fill: none; stroke: #377eb8; stroke-width: 1.5; stroke-linecap: round"/>
   </g>
   <g id="patch_8">
    <path d="M 476.965455 172.251875 
L 476.965455 16.79625 
" style="fill: none; stroke: #ffffff; stroke-width: 1.25; stroke-linejoin: miter; stroke-linecap: square"/>
   </g>
   <g id="patch_9">
    <path d="M 844.02 172.251875 
L 844.02 16.79625 
" style="fill: none; stroke: #ffffff; stroke-width: 1.25; stroke-linejoin: miter; stroke-linecap: square"/>
   </g>
   <g id="patch_10">
    <path d="M 476.965455 172.251875 
L 844.02 172.251875 
" style="fill: none; stroke: #ffffff; stroke-width: 1.25; stroke-linejoin: miter; stroke-linecap: square"/>
   </g>
   <g id="patch_11">
    <path d="M 476.965455 16.79625 
L 844.02 16.79625 
" style="fill: none; stroke: #ffffff; stroke-width: 1.25; stroke-linejoin: miter; stroke-linecap: square"/>
   </g>
   <g id="text_15">
    <!-- WebQSP (max_depth=2) -->
    <g style="fill: #262626" transform="translate(591.132727 10.79625) scale(0.12 -0.12)">
     <defs>
      <path id="CMUSerif-Roman-62" d="M 179 4173 
L 179 4371 
L 1101 4442 
L 1101 2413 
Q 1472 2829 1978 2829 
Q 2528 2829 2931 2406 
Q 3334 1984 3334 1382 
Q 3334 774 2912 352 
Q 2490 -70 1907 -70 
Q 1376 -70 1069 397 
Q 845 6 838 0 
L 678 0 
L 678 3814 
Q 678 4051 595 4112 
Q 512 4173 179 4173 
z
M 1120 730 
Q 1120 595 1210 461 
Q 1466 70 1882 70 
Q 2330 70 2605 480 
Q 2803 787 2803 1389 
Q 2803 1984 2618 2278 
Q 2362 2688 1946 2688 
Q 1478 2688 1190 2278 
Q 1120 2176 1120 2048 
L 1120 730 
z
" transform="scale(0.015625)"/>
      <path id="CMUSerif-Roman-50" d="M 224 0 
L 224 198 
L 378 198 
Q 723 198 803 256 
Q 883 314 883 499 
L 883 3872 
Q 883 4058 803 4115 
Q 723 4173 378 4173 
L 224 4173 
L 224 4371 
L 2483 4371 
Q 3130 4371 3562 4016 
Q 3994 3661 3994 3181 
Q 3994 2707 3555 2364 
Q 3117 2022 2534 2022 
L 1453 2022 
L 1453 499 
Q 1453 314 1533 256 
Q 1613 198 1958 198 
L 2112 198 
L 2112 0 
Q 1888 19 1165 19 
Q 448 19 224 0 
z
M 1434 2189 
L 2317 2189 
Q 2605 2189 2813 2269 
Q 3021 2349 3117 2448 
Q 3213 2547 3267 2707 
Q 3322 2867 3328 2956 
Q 3334 3046 3334 3181 
Q 3334 3322 3328 3411 
Q 3322 3501 3267 3661 
Q 3213 3821 3117 3920 
Q 3021 4019 2813 4096 
Q 2605 4173 2317 4173 
L 1747 4173 
Q 1530 4173 1482 4128 
Q 1434 4083 1434 3917 
L 1434 2189 
z
" transform="scale(0.015625)"/>
     </defs>
     <use xlink:href="#CMUSerif-Roman-57"/>
     <use xlink:href="#CMUSerif-Roman-65" x="102.699982"/>
     <use xlink:href="#CMUSerif-Roman-62" x="147.099976"/>
     <use xlink:href="#CMUSerif-Roman-51" x="202.59996"/>
     <use xlink:href="#CMUSerif-Roman-53" x="280.299942"/>
     <use xlink:href="#CMUSerif-Roman-50" x="335.799927"/>
     <use xlink:href="#CMUSerif-Roman-20" x="403.799911"/>
     <use xlink:href="#CMUSerif-Roman-28" x="437.099899"/>
     <use xlink:href="#CMUSerif-Roman-6d" x="475.899887"/>
     <use xlink:href="#CMUSerif-Roman-61" x="559.199875"/>
     <use xlink:href="#CMUSerif-Roman-78" x="609.19986"/>
     <use xlink:href="#CMUSerif-Roman-5f" x="661.899857"/>
     <use xlink:href="#CMUSerif-Roman-64" x="739.699844"/>
     <use xlink:href="#CMUSerif-Roman-65" x="795.199829"/>
     <use xlink:href="#CMUSerif-Roman-70" x="839.599823"/>
     <use xlink:href="#CMUSerif-Roman-74" x="895.099808"/>
     <use xlink:href="#CMUSerif-Roman-68" x="933.899796"/>
     <use xlink:href="#CMUSerif-Roman-3d" x="989.39978"/>
     <use xlink:href="#CMUSerif-Roman-32" x="1067.199768"/>
     <use xlink:href="#CMUSerif-Roman-29" x="1117.199753"/>
    </g>
   </g>
  </g>
  <g id="axes_3">
   <g id="patch_12">
    <path d="M 36.5 327.7075 
L 403.554545 327.7075 
L 403.554545 172.251875 
L 36.5 172.251875 
z
" style="fill: #f2f2f2"/>
   </g>
   <g id="matplotlib.axis_5">
    <g id="xtick_11">
     <g id="line2d_25">
      <path d="M 53.184298 327.7075 
L 53.184298 172.251875 
" clip-path="url(#p2186a42806)" style="fill: none; stroke: #ffffff; stroke-linecap: round"/>
     </g>
     <g id="text_16">
      <!-- 1 -->
      <g style="fill: #262626" transform="translate(50.434298 344.842188) scale(0.11 -0.11)">
       <use xlink:href="#CMUSerif-Roman-31"/>
      </g>
     </g>
    </g>
    <g id="xtick_12">
     <g id="line2d_26">
      <path d="M 70.746716 327.7075 
L 70.746716 172.251875 
" clip-path="url(#p2186a42806)" style="fill: none; stroke: #ffffff; stroke-linecap: round"/>
     </g>
     <g id="text_17">
      <!-- 2 -->
      <g style="fill: #262626" transform="translate(67.996716 344.842188) scale(0.11 -0.11)">
       <use xlink:href="#CMUSerif-Roman-32"/>
      </g>
     </g>
    </g>
    <g id="xtick_13">
     <g id="line2d_27">
      <path d="M 123.433971 327.7075 
L 123.433971 172.251875 
" clip-path="url(#p2186a42806)" style="fill: none; stroke: #ffffff; stroke-linecap: round"/>
     </g>
     <g id="text_18">
      <!-- 5 -->
      <g style="fill: #262626" transform="translate(120.683971 344.842188) scale(0.11 -0.11)">
       <defs>
        <path id="CMUSerif-Roman-35" d="M 320 1030 
Q 320 1222 422 1296 
Q 525 1370 634 1370 
Q 781 1370 867 1277 
Q 954 1184 954 1056 
Q 954 928 867 835 
Q 781 742 634 742 
Q 563 742 525 755 
Q 608 461 867 249 
Q 1126 38 1466 38 
Q 1894 38 2150 454 
Q 2304 723 2304 1331 
Q 2304 1869 2189 2138 
Q 2010 2547 1645 2547 
Q 1126 2547 819 2099 
Q 781 2042 736 2042 
Q 672 2042 659 2077 
Q 646 2112 646 2208 
L 646 4102 
Q 646 4256 710 4256 
Q 736 4256 787 4237 
Q 1190 4058 1638 4058 
Q 2099 4058 2509 4243 
Q 2541 4262 2560 4262 
Q 2624 4262 2624 4192 
Q 2624 4166 2573 4092 
Q 2522 4019 2413 3923 
Q 2304 3827 2163 3737 
Q 2022 3648 1817 3587 
Q 1613 3526 1389 3526 
Q 1120 3526 845 3610 
L 845 2362 
Q 1178 2688 1658 2688 
Q 2170 2688 2522 2275 
Q 2874 1862 2874 1286 
Q 2874 685 2458 272 
Q 2042 -141 1478 -141 
Q 966 -141 643 224 
Q 320 589 320 1030 
z
" transform="scale(0.015625)"/>
       </defs>
       <use xlink:href="#CMUSerif-Roman-35"/>
      </g>
     </g>
    </g>
    <g id="xtick_14">
     <g id="line2d_28">
      <path d="M 211.246064 327.7075 
L 211.246064 172.251875 
" clip-path="url(#p2186a42806)" style="fill: none; stroke: #ffffff; stroke-linecap: round"/>
     </g>
     <g id="text_19">
      <!-- 10 -->
      <g style="fill: #262626" transform="translate(205.746064 344.842188) scale(0.11 -0.11)">
       <use xlink:href="#CMUSerif-Roman-31"/>
       <use xlink:href="#CMUSerif-Roman-30" x="49.999985"/>
      </g>
     </g>
    </g>
    <g id="xtick_15">
     <g id="line2d_29">
      <path d="M 386.870248 327.7075 
L 386.870248 172.251875 
" clip-path="url(#p2186a42806)" style="fill: none; stroke: #ffffff; stroke-linecap: round"/>
     </g>
     <g id="text_20">
      <!-- 20 -->
      <g style="fill: #262626" transform="translate(381.370248 344.842188) scale(0.11 -0.11)">
       <use xlink:href="#CMUSerif-Roman-32"/>
       <use xlink:href="#CMUSerif-Roman-30" x="49.999985"/>
      </g>
     </g>
    </g>
    <g id="text_21">
     <!-- Beam Width -->
     <g style="fill: #262626" transform="translate(186.307273 359.305625) scale(0.12 -0.12)">
      <defs>
       <path id="CMUSerif-Roman-42" d="M 230 0 
L 230 198 
L 384 198 
Q 730 198 810 256 
Q 890 314 890 499 
L 890 3872 
Q 890 4058 810 4115 
Q 730 4173 384 4173 
L 230 4173 
L 230 4371 
L 2573 4371 
Q 3181 4371 3587 4044 
Q 3994 3718 3994 3290 
Q 3994 2938 3696 2656 
Q 3398 2374 2931 2285 
Q 3462 2227 3814 1907 
Q 4166 1587 4166 1171 
Q 4166 704 3763 352 
Q 3360 0 2739 0 
L 230 0 
z
M 1421 454 
Q 1421 288 1469 243 
Q 1517 198 1734 198 
L 2534 198 
Q 2995 198 3260 499 
Q 3526 800 3526 1177 
Q 3526 1555 3292 1878 
Q 3059 2202 2624 2202 
L 1421 2202 
L 1421 454 
z
M 1421 2342 
L 2349 2342 
Q 2842 2342 3107 2640 
Q 3373 2938 3373 3290 
Q 3373 3603 3161 3888 
Q 2950 4173 2528 4173 
L 1734 4173 
Q 1517 4173 1469 4128 
Q 1421 4083 1421 3917 
L 1421 2342 
z
" transform="scale(0.015625)"/>
      </defs>
      <use xlink:href="#CMUSerif-Roman-42"/>
      <use xlink:href="#CMUSerif-Roman-65" x="70.799988"/>
      <use xlink:href="#CMUSerif-Roman-61" x="115.199982"/>
      <use xlink:href="#CMUSerif-Roman-6d" x="165.199966"/>
      <use xlink:href="#CMUSerif-Roman-20" x="248.499954"/>
      <use xlink:href="#CMUSerif-Roman-57" x="281.799942"/>
      <use xlink:href="#CMUSerif-Roman-69" x="384.499924"/>
      <use xlink:href="#CMUSerif-Roman-64" x="412.199921"/>
      <use xlink:href="#CMUSerif-Roman-74" x="467.699905"/>
      <use xlink:href="#CMUSerif-Roman-68" x="506.499893"/>
     </g>
    </g>
   </g>
   <g id="matplotlib.axis_6">
    <g id="ytick_13">
     <g id="line2d_30">
      <path d="M 36.5 208.104693 
L 403.554545 208.104693 
" clip-path="url(#p2186a42806)" style="fill: none; stroke: #ffffff; stroke-linecap: round"/>
     </g>
     <g id="text_22">
      <!-- 5 -->
      <g style="fill: #262626" transform="translate(21.5 211.922036) scale(0.11 -0.11)">
       <use xlink:href="#CMUSerif-Roman-35"/>
      </g>
     </g>
    </g>
    <g id="ytick_14">
     <g id="line2d_31">
      <path d="M 36.5 250.641804 
L 403.554545 250.641804 
" clip-path="url(#p2186a42806)" style="fill: none; stroke: #ffffff; stroke-linecap: round"/>
     </g>
     <g id="text_23">
      <!-- 10 -->
      <g style="fill: #262626" transform="translate(16 254.459147) scale(0.11 -0.11)">
       <use xlink:href="#CMUSerif-Roman-31"/>
       <use xlink:href="#CMUSerif-Roman-30" x="49.999985"/>
      </g>
     </g>
    </g>
    <g id="ytick_15">
     <g id="line2d_32">
      <path d="M 36.5 293.178914 
L 403.554545 293.178914 
" clip-path="url(#p2186a42806)" style="fill: none; stroke: #ffffff; stroke-linecap: round"/>
     </g>
     <g id="text_24">
      <!-- 15 -->
      <g style="fill: #262626" transform="translate(16 296.996258) scale(0.11 -0.11)">
       <use xlink:href="#CMUSerif-Roman-31"/>
       <use xlink:href="#CMUSerif-Roman-35" x="49.999985"/>
      </g>
     </g>
    </g>
    <g id="text_25">
     <!-- Average Triplets Number -->
     <g style="fill: #262626" transform="translate(-4 317.168437) rotate(-90) scale(0.12 -0.12)">
      <defs>
       <path id="CMUSerif-Roman-54" d="M 230 2893 
L 352 4333 
L 4262 4333 
L 4384 2893 
L 4224 2893 
Q 4198 3181 4176 3347 
Q 4154 3514 4099 3670 
Q 4045 3827 3977 3904 
Q 3910 3981 3782 4041 
Q 3654 4102 3488 4118 
Q 3322 4134 3072 4134 
Q 2778 4134 2707 4122 
Q 2630 4102 2611 4048 
Q 2592 3994 2592 3878 
L 2592 506 
Q 2592 378 2617 326 
Q 2643 275 2790 236 
Q 2938 198 3264 198 
L 3520 198 
L 3520 0 
Q 3258 19 2304 19 
Q 1357 19 1094 0 
L 1094 198 
L 1350 198 
Q 1677 198 1824 236 
Q 1971 275 1996 326 
Q 2022 378 2022 506 
L 2022 3878 
Q 2022 3968 2016 4006 
Q 2010 4045 1981 4077 
Q 1952 4109 1888 4121 
Q 1824 4134 1542 4134 
Q 1293 4134 1126 4118 
Q 960 4102 832 4041 
Q 704 3981 637 3904 
Q 570 3827 515 3670 
Q 461 3514 438 3347 
Q 416 3181 390 2893 
L 230 2893 
z
" transform="scale(0.015625)"/>
       <path id="CMUSerif-Roman-4e" d="M 211 0 
L 211 198 
Q 442 198 589 243 
Q 736 288 790 374 
Q 845 461 857 518 
Q 870 576 870 672 
L 870 4013 
Q 870 4102 848 4124 
Q 826 4147 717 4160 
Q 525 4173 397 4173 
L 211 4173 
L 211 4371 
L 1299 4371 
Q 1389 4371 1414 4358 
Q 1440 4346 1485 4288 
L 3744 966 
L 3744 3699 
Q 3744 3795 3731 3852 
Q 3718 3910 3664 3996 
Q 3610 4083 3462 4128 
Q 3315 4173 3085 4173 
L 3085 4371 
Q 3757 4352 3833 4352 
Q 3910 4352 4582 4371 
L 4582 4173 
Q 4352 4173 4205 4128 
Q 4058 4083 4003 3996 
Q 3949 3910 3936 3852 
Q 3923 3795 3923 3699 
L 3923 166 
Q 3923 64 3910 32 
Q 3898 0 3834 0 
Q 3789 0 3725 83 
L 1114 3923 
Q 1088 3962 1050 4000 
L 1050 672 
Q 1050 576 1062 518 
Q 1075 461 1129 374 
Q 1184 288 1331 243 
Q 1478 198 1709 198 
L 1709 0 
Q 1037 19 960 19 
Q 883 19 211 0 
z
" transform="scale(0.015625)"/>
      </defs>
      <use xlink:href="#CMUSerif-Roman-41"/>
      <use xlink:href="#CMUSerif-Roman-76" x="74.999985"/>
      <use xlink:href="#CMUSerif-Roman-65" x="127.699982"/>
      <use xlink:href="#CMUSerif-Roman-72" x="172.099976"/>
      <use xlink:href="#CMUSerif-Roman-61" x="211.199966"/>
      <use xlink:href="#CMUSerif-Roman-67" x="261.199951"/>
      <use xlink:href="#CMUSerif-Roman-65" x="311.199936"/>
      <use xlink:href="#CMUSerif-Roman-20" x="355.59993"/>
      <use xlink:href="#CMUSerif-Roman-54" x="388.899918"/>
      <use xlink:href="#CMUSerif-Roman-72" x="461.099899"/>
      <use xlink:href="#CMUSerif-Roman-69" x="500.19989"/>
      <use xlink:href="#CMUSerif-Roman-70" x="527.899887"/>
      <use xlink:href="#CMUSerif-Roman-6c" x="583.399872"/>
      <use xlink:href="#CMUSerif-Roman-65" x="611.099869"/>
      <use xlink:href="#CMUSerif-Roman-74" x="655.499863"/>
      <use xlink:href="#CMUSerif-Roman-73" x="694.29985"/>
      <use xlink:href="#CMUSerif-Roman-20" x="733.699844"/>
      <use xlink:href="#CMUSerif-Roman-4e" x="766.999832"/>
      <use xlink:href="#CMUSerif-Roman-75" x="841.999817"/>
      <use xlink:href="#CMUSerif-Roman-6d" x="897.499802"/>
      <use xlink:href="#CMUSerif-Roman-62" x="980.799789"/>
      <use xlink:href="#CMUSerif-Roman-65" x="1036.299774"/>
      <use xlink:href="#CMUSerif-Roman-72" x="1080.699768"/>
     </g>
    </g>
   </g>
   <g id="PolyCollection_3"/>
   <g id="line2d_33">
    <path d="M 53.184298 179.31804 
L 70.746716 186.516628 
L 123.433971 217.978692 
L 211.246064 269.589103 
L 386.870248 320.641335 
" clip-path="url(#p2186a42806)" style="fill: none; stroke: #e41a1c; stroke-width: 1.5; stroke-linecap: round"/>
   </g>
   <g id="patch_13">
    <path d="M 36.5 327.7075 
L 36.5 172.251875 
" style="fill: none; stroke: #ffffff; stroke-width: 1.25; stroke-linejoin: miter; stroke-linecap: square"/>
   </g>
   <g id="patch_14">
    <path d="M 403.554545 327.7075 
L 403.554545 172.251875 
" style="fill: none; stroke: #ffffff; stroke-width: 1.25; stroke-linejoin: miter; stroke-linecap: square"/>
   </g>
   <g id="patch_15">
    <path d="M 36.5 327.7075 
L 403.554545 327.7075 
" style="fill: none; stroke: #ffffff; stroke-width: 1.25; stroke-linejoin: miter; stroke-linecap: square"/>
   </g>
   <g id="patch_16">
    <path d="M 36.5 172.251875 
L 403.554545 172.251875 
" style="fill: none; stroke: #ffffff; stroke-width: 1.25; stroke-linejoin: miter; stroke-linecap: square"/>
   </g>
  </g>
  <g id="axes_4">
   <g id="patch_17">
    <path d="M 476.965455 327.7075 
L 844.02 327.7075 
L 844.02 172.251875 
L 476.965455 172.251875 
z
" style="fill: #f2f2f2"/>
   </g>
   <g id="matplotlib.axis_7">
    <g id="xtick_16">
     <g id="line2d_34">
      <path d="M 493.649752 327.7075 
L 493.649752 172.251875 
" clip-path="url(#p3f01f19d74)" style="fill: none; stroke: #ffffff; stroke-linecap: round"/>
     </g>
     <g id="text_26">
      <!-- 1 -->
      <g style="fill: #262626" transform="translate(490.899752 344.842188) scale(0.11 -0.11)">
       <use xlink:href="#CMUSerif-Roman-31"/>
      </g>
     </g>
    </g>
    <g id="xtick_17">
     <g id="line2d_35">
      <path d="M 511.212171 327.7075 
L 511.212171 172.251875 
" clip-path="url(#p3f01f19d74)" style="fill: none; stroke: #ffffff; stroke-linecap: round"/>
     </g>
     <g id="text_27">
      <!-- 2 -->
      <g style="fill: #262626" transform="translate(508.462171 344.842188) scale(0.11 -0.11)">
       <use xlink:href="#CMUSerif-Roman-32"/>
      </g>
     </g>
    </g>
    <g id="xtick_18">
     <g id="line2d_36">
      <path d="M 563.899426 327.7075 
L 563.899426 172.251875 
" clip-path="url(#p3f01f19d74)" style="fill: none; stroke: #ffffff; stroke-linecap: round"/>
     </g>
     <g id="text_28">
      <!-- 5 -->
      <g style="fill: #262626" transform="translate(561.149426 344.842188) scale(0.11 -0.11)">
       <use xlink:href="#CMUSerif-Roman-35"/>
      </g>
     </g>
    </g>
    <g id="xtick_19">
     <g id="line2d_37">
      <path d="M 651.711518 327.7075 
L 651.711518 172.251875 
" clip-path="url(#p3f01f19d74)" style="fill: none; stroke: #ffffff; stroke-linecap: round"/>
     </g>
     <g id="text_29">
      <!-- 10 -->
      <g style="fill: #262626" transform="translate(646.211518 344.842188) scale(0.11 -0.11)">
       <use xlink:href="#CMUSerif-Roman-31"/>
       <use xlink:href="#CMUSerif-Roman-30" x="49.999985"/>
      </g>
     </g>
    </g>
    <g id="xtick_20">
     <g id="line2d_38">
      <path d="M 827.335702 327.7075 
L 827.335702 172.251875 
" clip-path="url(#p3f01f19d74)" style="fill: none; stroke: #ffffff; stroke-linecap: round"/>
     </g>
     <g id="text_30">
      <!-- 20 -->
      <g style="fill: #262626" transform="translate(821.835702 344.842188) scale(0.11 -0.11)">
       <use xlink:href="#CMUSerif-Roman-32"/>
       <use xlink:href="#CMUSerif-Roman-30" x="49.999985"/>
      </g>
     </g>
    </g>
    <g id="text_31">
     <!-- Beam Width -->
     <g style="fill: #262626" transform="translate(626.772727 359.305625) scale(0.12 -0.12)">
      <use xlink:href="#CMUSerif-Roman-42"/>
      <use xlink:href="#CMUSerif-Roman-65" x="70.799988"/>
      <use xlink:href="#CMUSerif-Roman-61" x="115.199982"/>
      <use xlink:href="#CMUSerif-Roman-6d" x="165.199966"/>
      <use xlink:href="#CMUSerif-Roman-20" x="248.499954"/>
      <use xlink:href="#CMUSerif-Roman-57" x="281.799942"/>
      <use xlink:href="#CMUSerif-Roman-69" x="384.499924"/>
      <use xlink:href="#CMUSerif-Roman-64" x="412.199921"/>
      <use xlink:href="#CMUSerif-Roman-74" x="467.699905"/>
      <use xlink:href="#CMUSerif-Roman-68" x="506.499893"/>
     </g>
    </g>
   </g>
   <g id="matplotlib.axis_8">
    <g id="ytick_16">
     <g id="line2d_39">
      <path d="M 476.965455 173.714631 
L 844.02 173.714631 
" clip-path="url(#p3f01f19d74)" style="fill: none; stroke: #ffffff; stroke-linecap: round"/>
     </g>
     <g id="text_32">
      <!-- 0 -->
      <g style="fill: #262626" transform="translate(461.965455 177.531975) scale(0.11 -0.11)">
       <use xlink:href="#CMUSerif-Roman-30"/>
      </g>
     </g>
    </g>
    <g id="ytick_17">
     <g id="line2d_40">
      <path d="M 476.965455 198.320728 
L 844.02 198.320728 
" clip-path="url(#p3f01f19d74)" style="fill: none; stroke: #ffffff; stroke-linecap: round"/>
     </g>
     <g id="text_33">
      <!-- 50 -->
      <g style="fill: #262626" transform="translate(456.465455 202.138071) scale(0.11 -0.11)">
       <use xlink:href="#CMUSerif-Roman-35"/>
       <use xlink:href="#CMUSerif-Roman-30" x="49.999985"/>
      </g>
     </g>
    </g>
    <g id="ytick_18">
     <g id="line2d_41">
      <path d="M 476.965455 222.926824 
L 844.02 222.926824 
" clip-path="url(#p3f01f19d74)" style="fill: none; stroke: #ffffff; stroke-linecap: round"/>
     </g>
     <g id="text_34">
      <!-- 100 -->
      <g style="fill: #262626" transform="translate(450.965455 226.744168) scale(0.11 -0.11)">
       <use xlink:href="#CMUSerif-Roman-31"/>
       <use xlink:href="#CMUSerif-Roman-30" x="49.999985"/>
       <use xlink:href="#CMUSerif-Roman-30" x="99.999969"/>
      </g>
     </g>
    </g>
    <g id="ytick_19">
     <g id="line2d_42">
      <path d="M 476.965455 247.532921 
L 844.02 247.532921 
" clip-path="url(#p3f01f19d74)" style="fill: none; stroke: #ffffff; stroke-linecap: round"/>
     </g>
     <g id="text_35">
      <!-- 150 -->
      <g style="fill: #262626" transform="translate(450.965455 251.350264) scale(0.11 -0.11)">
       <use xlink:href="#CMUSerif-Roman-31"/>
       <use xlink:href="#CMUSerif-Roman-35" x="49.999985"/>
       <use xlink:href="#CMUSerif-Roman-30" x="99.999969"/>
      </g>
     </g>
    </g>
    <g id="ytick_20">
     <g id="line2d_43">
      <path d="M 476.965455 272.139017 
L 844.02 272.139017 
" clip-path="url(#p3f01f19d74)" style="fill: none; stroke: #ffffff; stroke-linecap: round"/>
     </g>
     <g id="text_36">
      <!-- 200 -->
      <g style="fill: #262626" transform="translate(450.965455 275.956361) scale(0.11 -0.11)">
       <use xlink:href="#CMUSerif-Roman-32"/>
       <use xlink:href="#CMUSerif-Roman-30" x="49.999985"/>
       <use xlink:href="#CMUSerif-Roman-30" x="99.999969"/>
      </g>
     </g>
    </g>
    <g id="ytick_21">
     <g id="line2d_44">
      <path d="M 476.965455 296.745114 
L 844.02 296.745114 
" clip-path="url(#p3f01f19d74)" style="fill: none; stroke: #ffffff; stroke-linecap: round"/>
     </g>
     <g id="text_37">
      <!-- 250 -->
      <g style="fill: #262626" transform="translate(450.965455 300.562457) scale(0.11 -0.11)">
       <use xlink:href="#CMUSerif-Roman-32"/>
       <use xlink:href="#CMUSerif-Roman-35" x="49.999985"/>
       <use xlink:href="#CMUSerif-Roman-30" x="99.999969"/>
      </g>
     </g>
    </g>
    <g id="ytick_22">
     <g id="line2d_45">
      <path d="M 476.965455 321.35121 
L 844.02 321.35121 
" clip-path="url(#p3f01f19d74)" style="fill: none; stroke: #ffffff; stroke-linecap: round"/>
     </g>
     <g id="text_38">
      <!-- 300 -->
      <g style="fill: #262626" transform="translate(450.965455 325.168554) scale(0.11 -0.11)">
       <defs>
        <path id="CMUSerif-Roman-33" d="M 269 864 
Q 269 1056 377 1145 
Q 486 1235 627 1235 
Q 774 1235 880 1139 
Q 986 1043 986 877 
Q 986 698 861 598 
Q 736 499 563 525 
Q 717 269 998 153 
Q 1280 38 1542 38 
Q 1818 38 2042 275 
Q 2266 512 2266 1094 
Q 2266 1587 2074 1872 
Q 1882 2157 1504 2157 
L 1222 2157 
Q 1126 2157 1097 2166 
Q 1069 2176 1069 2227 
Q 1069 2291 1165 2304 
Q 1261 2304 1414 2323 
Q 1786 2336 1984 2656 
Q 2163 2957 2163 3386 
Q 2163 3776 1977 3939 
Q 1792 4102 1549 4102 
Q 1325 4102 1078 4009 
Q 832 3917 698 3706 
Q 1094 3706 1094 3386 
Q 1094 3245 1004 3152 
Q 915 3059 768 3059 
Q 627 3059 534 3148 
Q 442 3238 442 3392 
Q 442 3757 768 4009 
Q 1094 4262 1574 4262 
Q 2048 4262 2400 4012 
Q 2752 3763 2752 3379 
Q 2752 3002 2502 2691 
Q 2253 2381 1856 2253 
Q 2342 2157 2633 1827 
Q 2925 1498 2925 1094 
Q 2925 595 2531 227 
Q 2138 -141 1562 -141 
Q 1030 -141 649 147 
Q 269 435 269 864 
z
" transform="scale(0.015625)"/>
       </defs>
       <use xlink:href="#CMUSerif-Roman-33"/>
       <use xlink:href="#CMUSerif-Roman-30" x="49.999985"/>
       <use xlink:href="#CMUSerif-Roman-30" x="99.999969"/>
      </g>
     </g>
    </g>
   </g>
   <g id="PolyCollection_4"/>
   <g id="line2d_46">
    <path d="M 493.649752 179.31804 
L 511.212171 204.27503 
L 563.899426 206.310088 
L 651.711518 247.592025 
L 827.335702 320.641335 
" clip-path="url(#p3f01f19d74)" style="fill: none; stroke: #e41a1c; stroke-width: 1.5; stroke-linecap: round"/>
   </g>
   <g id="patch_18">
    <path d="M 476.965455 327.7075 
L 476.965455 172.251875 
" style="fill: none; stroke: #ffffff; stroke-width: 1.25; stroke-linejoin: miter; stroke-linecap: square"/>
   </g>
   <g id="patch_19">
    <path d="M 844.02 327.7075 
L 844.02 172.251875 
" style="fill: none; stroke: #ffffff; stroke-width: 1.25; stroke-linejoin: miter; stroke-linecap: square"/>
   </g>
   <g id="patch_20">
    <path d="M 476.965455 327.7075 
L 844.02 327.7075 
" style="fill: none; stroke: #ffffff; stroke-width: 1.25; stroke-linejoin: miter; stroke-linecap: square"/>
   </g>
   <g id="patch_21">
    <path d="M 476.965455 172.251875 
L 844.02 172.251875 
" style="fill: none; stroke: #ffffff; stroke-width: 1.25; stroke-linejoin: miter; stroke-linecap: square"/>
   </g>
  </g>
 </g>
 <defs>
  <clipPath id="pc6c9661ad9">
   <rect x="36.5" y="16.79625" width="367.054545" height="155.455625"/>
  </clipPath>
  <clipPath id="pd5fb5aed81">
   <rect x="476.965455" y="16.79625" width="367.054545" height="155.455625"/>
  </clipPath>
  <clipPath id="p2186a42806">
   <rect x="36.5" y="172.251875" width="367.054545" height="155.455625"/>
  </clipPath>
  <clipPath id="p3f01f19d74">
   <rect x="476.965455" y="172.251875" width="367.054545" height="155.455625"/>
  </clipPath>
 </defs>
</svg>
