<svg xmlns="http://www.w3.org/2000/svg" height="24" viewBox="0 -960 960 960" width="24"><path d="M798.152-73.696 690.616-180H172.309q-30.308 0-51.308-21t-21-51.308v-455.382q0-30.308 21-51.308t51.308-21h3.846L236.154-720h-63.845q-4.616 0-8.463 3.846-3.846 3.847-3.846 8.463v455.382q0 5.385 3.462 8.847 3.462 3.462 8.847 3.462h458.308l-91.539-91.539H251.539v-59.999h227.54L60.618-811.23l42.153-42.153 737.534 737.534-42.153 42.153Zm52.616-145.69L800-270.154v-437.537q0-5.385-3.462-8.847-3.462-3.462-8.847-3.462H350.154l-59.999-59.999h497.536q30.308 0 51.308 21t21 51.308v452.921q0 9.846-1.808 18.692t-7.423 16.692ZM587.076-483.077l-59.998-59.999h181.383v59.999H587.076Zm-335.537 0v-59.999h59.999v59.999h-59.999Zm323.538-12Zm-173.999 25.538Z"/></svg>